<svg width="134" height="152" viewBox="0 0 134 152" fill="none" xmlns="http://www.w3.org/2000/svg">
<g id="Group 67956">
<path id="Vector" d="M16.75 96.5994C16.75 101.206 12.9812 104.974 8.375 104.974C3.76875 104.974 0 101.206 0 96.5994V58.9119C0 54.3056 3.76875 50.5369 8.375 50.5369C12.9812 50.5369 16.75 54.3056 16.75 58.9119V96.5994ZM134 96.5994C134 101.206 130.231 104.974 125.625 104.974C121.019 104.974 117.25 101.206 117.25 96.5994V58.9119C117.25 54.3056 121.019 50.5369 125.625 50.5369C130.231 50.5369 134 54.3056 134 58.9119V96.5994ZM58.625 142.662C58.625 147.268 54.8563 151.037 50.25 151.037C45.6437 151.037 41.875 147.268 41.875 142.662V104.974C41.875 100.368 45.6437 96.5994 50.25 96.5994C54.8563 96.5994 58.625 100.368 58.625 104.974V142.662ZM92.125 142.662C92.125 147.268 88.3562 151.037 83.75 151.037C79.1438 151.037 75.375 147.268 75.375 142.662V104.974C75.375 100.368 79.1438 96.5994 83.75 96.5994C88.3562 96.5994 92.125 100.368 92.125 104.974V142.662Z" fill="#7CB342"/>
<path id="Vector_2" d="M25.125 50.5369V113.349C25.125 117.956 28.8937 121.724 33.5 121.724H100.5C105.106 121.724 108.875 117.956 108.875 113.349V50.5369H25.125ZM67 8.66187C41.875 8.66187 26.3813 23.7369 25.125 42.1619H108.875C107.619 23.7369 92.125 8.66187 67 8.66187ZM50.25 32.1119C47.7375 32.1119 46.0625 30.4369 46.0625 27.9244C46.0625 25.4119 47.7375 23.7369 50.25 23.7369C52.7625 23.7369 54.4375 25.4119 54.4375 27.9244C54.4375 30.0181 52.7625 32.1119 50.25 32.1119ZM83.75 32.1119C81.2375 32.1119 79.5625 30.4369 79.5625 27.9244C79.5625 25.4119 81.2375 23.7369 83.75 23.7369C86.2625 23.7369 87.9375 25.4119 87.9375 27.9244C87.9375 30.0181 86.2625 32.1119 83.75 32.1119Z" fill="#7CB342"/>
<path id="Vector_3" d="M85.0023 19.1316C84.1648 19.1316 83.3273 18.7129 82.4898 18.2941C80.3961 17.0379 79.9773 14.5254 81.2336 12.4316L88.3523 1.96289C89.6086 -0.130859 92.1211 -0.54961 94.2148 0.70664C96.3086 1.96289 96.7273 4.47539 95.4711 6.56914L88.3523 17.0379C87.9336 18.2941 86.6773 19.1316 85.0023 19.1316ZM47.3148 17.4566C46.0586 17.4566 44.3836 16.6191 43.9648 15.3629L38.5211 6.56914C37.2648 4.47539 37.6836 1.96289 39.7773 0.70664C41.8711 -0.54961 44.3836 -0.130859 45.6398 1.96289L51.0836 10.7566C52.3398 12.8504 51.9211 15.3629 49.8273 16.6191C48.9898 17.0379 48.1523 17.4566 47.3148 17.4566Z" fill="#7CB342"/>
</g>
</svg>
