<svg width="144" height="112" viewBox="0 0 144 112" fill="none" xmlns="http://www.w3.org/2000/svg">
<g id="Group 67954">
<path id="Vector" fill-rule="evenodd" clip-rule="evenodd" d="M43.659 87.5419L37.125 89.8759C31.518 91.4869 26.535 91.0399 23.451 89.9869C20.367 88.9339 20.628 87.5959 24.663 85.8709L30.888 83.4169L21.486 79.4599L11.136 76.9429C4.908 79.4899 0 82.4419 0 86.3539C0 91.8409 10.677 95.8639 21.909 97.6849C32.385 99.3859 44.727 98.8039 53.763 96.6559L65.133 94.0099L56.421 90.3589L43.659 87.5419ZM77.307 111.701L96.771 104.771L87.615 100.856L77.13 98.2699L56.988 105.515L69.12 108.458L77.307 111.701Z" fill="#EDBE00"/>
<path id="Vector_2" fill-rule="evenodd" clip-rule="evenodd" d="M132.971 91.6941C138.413 89.6661 145.049 85.9401 143.864 80.9751C142.85 76.7301 130.313 70.2141 114.182 69.3501C105.902 68.9061 97.4719 69.4641 87.1519 72.2661C84.0259 73.1151 77.3119 75.3711 77.3119 75.3711L86.5009 78.6621L98.8759 81.8811L108.476 78.5031C111.23 77.5341 114.584 77.3241 118.178 77.6091C121.769 77.8941 125.438 80.3361 120.656 82.4121L112.298 85.6191L122.144 89.2011L132.971 91.6941ZM56.1649 61.0791L43.5469 65.1441L51.9109 69.3381L63.8509 71.6151L76.7239 67.0911L56.1649 61.0791Z" fill="#0370C8"/>
<path id="Vector_3" fill-rule="evenodd" clip-rule="evenodd" d="M96.7708 104.771L132.966 91.694L112.29 85.622L77.1268 98.267L96.7708 104.771ZM65.1298 94.01L43.6588 87.542L77.3068 75.371L98.8708 81.881L65.1298 94.01ZM30.8878 83.417L63.8488 71.615L43.5418 65.144L11.1328 76.943L30.8878 83.417Z" fill="#16979D"/>
<path id="Vector_4" fill-rule="evenodd" clip-rule="evenodd" d="M77.3096 111.701L53.7656 104.531V0.5L72.8426 5.336C97.1546 12.59 112.794 17.72 112.794 42.857C112.794 62.477 102.201 69.701 86.5796 62.777V26.123C86.5796 17.852 77.4056 17.063 77.4056 23.345L77.3096 111.701Z" fill="#CF1928"/>
</g>
</svg>
