<svg width="120" height="120" viewBox="0 0 120 120" fill="none" xmlns="http://www.w3.org/2000/svg">
<g id="Group 67955">
<path id="Vector" d="M120 60C120 73.11 115.8 85.23 108.63 95.1C106.65 97.89 104.4 100.5 101.94 102.87C91.11 113.46 76.32 120 60 120C43.68 120 28.89 113.46 18.06 102.87C15.6 100.5 13.35 97.89 11.37 95.1C4.2 85.23 0 73.11 0 60C0 42.93 7.11 27.57 18.54 16.65C21.54 13.77 24.84 11.22 28.38 9.03C37.56 3.3 48.39 0 60 0C71.61 0 82.44 3.3 91.62 9.03C95.16 11.22 98.46 13.77 101.46 16.65C112.89 27.57 120 42.93 120 60Z" fill="url(#paint0_radial_1390_1050)"/>
<path id="Vector_2" d="M108.63 95.0998C106.65 97.8898 104.4 100.5 101.94 102.87C101.73 101.04 101.01 95.4598 99.0005 91.4998C94.5005 82.4998 75.0005 58.4998 60.0005 47.9998C45.0005 58.4998 25.5005 82.4998 21.0005 91.4998C18.9905 95.4598 18.2705 101.04 18.0605 102.87C15.6005 100.5 13.3505 97.8898 11.3705 95.0998C11.2805 93.2398 11.4005 90.5998 12.0005 86.9998C14.2205 73.5898 37.5005 38.9998 45.0005 32.9998C34.8005 22.7998 24.6005 18.2698 18.5405 16.6498C21.5405 13.7698 24.8405 11.2198 28.3805 9.02979C45.4505 9.29979 54.1505 15.0898 60.0005 17.9998C65.8505 15.0898 74.5505 9.29979 91.6205 9.02979C95.1605 11.2198 98.4605 13.7698 101.46 16.6498C95.4005 18.2698 85.2005 22.7998 75.0005 32.9998C82.5005 38.9998 105.78 73.5898 108 86.9998C108.6 90.5998 108.72 93.2398 108.63 95.0998Z" fill="url(#paint1_radial_1390_1050)"/>
</g>
<defs>
<radialGradient id="paint0_radial_1390_1050" cx="0" cy="0" r="1" gradientUnits="userSpaceOnUse" gradientTransform="translate(60 43.305) scale(122.205)">
<stop stop-color="#DFE9F2"/>
<stop offset="0.543" stop-color="#D6E0E9"/>
<stop offset="1" stop-color="#BFC8D1"/>
</radialGradient>
<radialGradient id="paint1_radial_1390_1050" cx="0" cy="0" r="1" gradientUnits="userSpaceOnUse" gradientTransform="translate(59.6734 32.1508) scale(59.37 59.37)">
<stop stop-color="#4CAF50"/>
<stop offset="0.489" stop-color="#4AAF50"/>
<stop offset="0.665" stop-color="#43AD50"/>
<stop offset="0.79" stop-color="#38AA50"/>
<stop offset="0.892" stop-color="#27A550"/>
<stop offset="0.978" stop-color="#11A050"/>
<stop offset="1" stop-color="#0A9E50"/>
</radialGradient>
</defs>
</svg>
